<svg width="40" height="38" viewBox="0 0 40 38" fill="none" xmlns="http://www.w3.org/2000/svg">
<path d="M11.2851 32.9353C9.51807 32.9353 7.75101 31.3327 6.86747 30.6459C2.4498 27.4409 1.1245 26.2962 0.240967 25.6094V35.2246C0.240967 36.4887 1.23011 37.5139 2.4498 37.5139H20.1205C21.3402 37.5139 22.3293 36.4887 22.3293 35.2246V25.6094C21.4458 26.2962 20.1205 27.4409 15.7028 30.6459C14.8193 31.3327 13.0522 32.9353 11.2851 32.9353ZM20.1205 19.1993H2.4498C1.23011 19.1993 0.240967 20.2245 0.240967 21.4887V22.6333C2.00803 24.0069 1.78715 24.0069 8.19277 28.8145C8.85542 29.2723 10.1807 30.6459 11.2851 30.6459C12.3896 30.6459 13.7149 29.2723 14.3775 29.0434C20.7831 24.2358 20.5623 24.2358 22.3293 22.8622V21.4887C22.3293 20.2245 21.3402 19.1993 20.1205 19.1993ZM37.7912 12.3314H15.7028C14.4831 12.3314 13.494 13.3566 13.494 14.6207V16.91H20.1205C22.4128 16.91 24.3028 18.7286 24.5181 21.0465L24.5382 21.0308V30.6459H37.7912C39.0109 30.6459 40 29.6208 40 28.3566V14.6207C40 13.3566 39.0109 12.3314 37.7912 12.3314ZM35.5823 21.4887H31.1647V16.91H35.5823V21.4887ZM11.2851 14.6207C11.2851 12.096 13.2669 10.0421 15.7028 10.0421H31.1647V3.17409C31.1647 1.90995 30.1755 0.884766 28.9558 0.884766H6.86747C5.64778 0.884766 4.65864 1.90995 4.65864 3.17409V16.91H11.2851V14.6207Z" fill="#5b8e1e "/>
</svg>
