<svg width="35" height="36" viewBox="0 0 35 36" fill="none" xmlns="http://www.w3.org/2000/svg">
<path d="M34.0019 25.3748L26.3455 22.016C26.0184 21.8733 25.6549 21.8432 25.3097 21.9303C24.9645 22.0174 24.6562 22.2169 24.4314 22.4988L21.0407 26.7394C15.7193 24.1711 11.4369 19.7874 8.92789 14.3402L13.0705 10.8693C13.3465 10.6396 13.5418 10.3241 13.6269 9.97053C13.712 9.61699 13.6823 9.24469 13.5422 8.90999L10.2609 1.07259C10.1072 0.711796 9.83529 0.417219 9.4921 0.239655C9.14892 0.0620915 8.75597 0.01267 8.381 0.0999127L1.27151 1.77936C0.909995 1.86481 0.587453 2.07317 0.356524 2.37044C0.125596 2.6677 -8.32775e-05 3.03632 4.14006e-08 3.41611C4.14006e-08 21.3652 14.2122 35.8854 31.7193 35.8854C32.0904 35.8856 32.4507 35.757 32.7412 35.5206C33.0318 35.2842 33.2354 34.954 33.3189 34.5838L34.9596 27.3062C35.0443 26.9205 34.995 26.5166 34.8202 26.1641C34.6454 25.8116 34.356 25.5325 34.0019 25.3748Z" fill="#5b8e1e "/>
</svg>
